# Alias OBJ Model File
# Exported from SketchUp, (c) 2000-2012 Trimble Navigation Limited
# File units = meters

mtllib BridgeStart2.mtl

g Mesh1 Group2 Group1 Model

usemtl Base2
v 0 0 3.66
vt -36.3 -20.1895
vn 0 -1 -0
v 0 0 -5.52
vt -36.3 7.84979
v 18.15 0 -5.52
vt 0 7.84979
v 18.15 0 3.66
vt 0 -20.1895
f 1/1/1 2/2/1 3/3/1 4/4/1 

v 0 0.526761 3.66
vt -13.22 8.49531
vn -1 0 -0
v 0 0.526761 -5.52
vt 5.14 8.49531
vt 5.14 0
vt -13.22 0
f 5/5/2 6/6/2 2/7/2 1/8/2 

vt 36.3 7.84979
vn 0 1 -0
vt 36.3 -20.1895
v 18.15 0.526761 3.66
v 18.15 0.526761 -5.52
f 6/9/3 5/10/3 7/4/3 8/3/3 

vt 0 8.49531
vn 0 0 1
vt 36.3 8.49531
vt 36.3 0
vt 0 0
f 7/11/4 5/12/4 1/13/4 4/14/4 

vt -5.14 8.49531
vn 1 0 -0
vt 13.22 8.49531
vt 13.22 0
vt -5.14 0
f 8/15/5 7/16/5 4/17/5 3/18/5 

usemtl Base
vt -36.3 8.49531
vn 0 0 -1
vt -36.3 0
f 6/19/6 8/11/6 3/14/6 2/20/6 

g Mesh2 Group2 Group1 Model

l 3 4

l 2 3

l 1 2

l 4 1

l 4 7

l 8 7

l 6 8

l 5 6

l 7 5

l 1 5

l 2 6

l 3 8

g Mesh3 Group3 Group1 Model

v 0 0.526761 -3.6
v 0 0.526761 -5.52
vt -36.3 5.86444
v 18.15 0.526761 -5.52
vt 0 5.86444
v 18.15 0.526761 -3.6
f 9/20/1 10/21/1 11/22/1 12/14/1 

v 0 1.70996 -3.6
vt 0 9.16318
v 0 1.70996 -5.52
vt 3.84 9.16318
vt 3.84 0
f 13/23/2 14/24/2 10/25/2 9/14/2 

vt 36.3 5.86444
v 18.15 1.70996 -3.6
v 18.15 1.70996 -5.52
f 14/26/3 13/13/3 15/14/3 16/22/3 

vt 36.3 9.16318
f 15/23/4 13/27/4 9/13/4 12/14/4 

vt -3.84 9.16318
vt -3.84 0
f 16/28/5 15/23/5 12/14/5 11/29/5 

vt -36.3 9.16318
f 14/30/6 16/23/6 11/14/6 10/20/6 

g Mesh4 Group3 Group1 Model

l 11 12

l 10 11

l 9 10

l 12 9

l 12 15

l 16 15

l 14 16

l 13 14

l 15 13

l 9 13

l 10 14

l 11 16

g Mesh5 Group5 Group4 Group1 Model

usemtl Metal
v 0.0804232 2.60316 -4.21697
vt -0.9 0
v 0.0804232 2.60316 -4.61697
vt -0.9 1.22176
v 15.73 2.60316 -4.61697
vt 0 1.22176
v 15.73 2.60316 -4.21697
f 17/31/1 18/32/1 19/33/1 20/14/1 

v 0.0804232 2.72646 -4.21697
vt 0 1.37448
v 0.0804232 2.72646 -4.61697
vt 0.8 1.37448
vt 0.8 0
f 21/34/2 22/35/2 18/36/2 17/14/2 

vt 0.9 1.22176
vt 0.9 0
v 15.73 2.72646 -4.21697
v 15.73 2.72646 -4.61697
f 22/37/3 21/38/3 23/14/3 24/33/3 

vt 0.9 1.37448
f 23/34/4 21/39/4 17/38/4 20/14/4 

vt -0.8 1.37448
vt -0.8 0
f 24/40/5 23/34/5 20/14/5 19/41/5 

vt -0.9 1.37448
f 22/42/6 24/34/6 19/14/6 18/31/6 

g Mesh6 Group5 Group4 Group1 Model

l 20 19

l 17 20

l 18 17

l 19 18

l 19 24

l 23 24

l 21 23

l 22 21

l 24 22

l 18 22

l 17 21

l 20 23

g Mesh7 Group6 Group4 Group1 Model

v 1.29855 1.70996 -4.1
v 1.29855 1.70996 -4.5
v 1.51174 1.70996 -4.5
v 1.51174 1.70996 -4.1
f 25/31/1 26/32/1 27/33/1 28/14/1 

v 1.29855 2.82811 -4.1
v 1.29855 2.82811 -4.5
f 29/34/2 30/35/2 26/36/2 25/14/2 

v 1.51174 2.82811 -4.1
v 1.51174 2.82811 -4.5
f 30/37/3 29/38/3 31/14/3 32/33/3 

f 31/34/4 29/39/4 25/38/4 28/14/4 

f 32/40/5 31/34/5 28/14/5 27/41/5 

f 30/42/6 32/34/6 27/14/6 26/31/6 

g Mesh8 Group6 Group4 Group1 Model

l 28 27

l 25 28

l 26 25

l 27 26

l 27 32

l 31 32

l 29 31

l 30 29

l 32 30

l 26 30

l 25 29

l 28 31

g Mesh9 Group7 Group4 Group1 Model

v 7.50376 1.70996 -4.21697
v 7.50376 1.70996 -4.61697
v 7.71695 1.70996 -4.61697
v 7.71695 1.70996 -4.21697
f 33/31/1 34/32/1 35/33/1 36/14/1 

v 7.50376 2.82811 -4.21697
v 7.50376 2.82811 -4.61697
f 37/34/2 38/35/2 34/36/2 33/14/2 

v 7.71695 2.82811 -4.21697
v 7.71695 2.82811 -4.61697
f 38/37/3 37/38/3 39/14/3 40/33/3 

f 39/34/4 37/39/4 33/38/4 36/14/4 

f 40/40/5 39/34/5 36/14/5 35/41/5 

f 38/42/6 40/34/6 35/14/6 34/31/6 

g Mesh10 Group7 Group4 Group1 Model

l 36 35

l 33 36

l 34 33

l 35 34

l 35 40

l 39 40

l 37 39

l 38 37

l 40 38

l 34 38

l 33 37

l 36 39

g Mesh11 Group8 Group4 Group1 Model

v 0.0804232 2.05316 -4.21697
v 0.0804232 2.05316 -4.61697
v 15.73 2.05316 -4.61697
v 15.73 2.05316 -4.21697
f 41/31/1 42/32/1 43/33/1 44/14/1 

v 0.0804232 2.17646 -4.21697
v 0.0804232 2.17646 -4.61697
f 45/34/2 46/35/2 42/36/2 41/14/2 

v 15.73 2.17646 -4.21697
v 15.73 2.17646 -4.61697
f 46/37/3 45/38/3 47/14/3 48/33/3 

f 47/34/4 45/39/4 41/38/4 44/14/4 

f 48/40/5 47/34/5 44/14/5 43/41/5 

f 46/42/6 48/34/6 43/14/6 42/31/6 

g Mesh12 Group8 Group4 Group1 Model

l 44 43

l 41 44

l 42 41

l 43 42

l 43 48

l 47 48

l 45 47

l 46 45

l 48 46

l 42 46

l 41 45

l 44 47

g Mesh13 Group9 Group4 Group1 Model

v 14.4871 1.70996 -4.21697
v 14.4871 1.70996 -4.61697
v 14.7003 1.70996 -4.61697
v 14.7003 1.70996 -4.21697
f 49/31/1 50/32/1 51/33/1 52/14/1 

v 14.4871 2.82811 -4.21697
v 14.4871 2.82811 -4.61697
f 53/34/2 54/35/2 50/36/2 49/14/2 

v 14.7003 2.82811 -4.21697
v 14.7003 2.82811 -4.61697
f 54/37/3 53/38/3 55/14/3 56/33/3 

f 55/34/4 53/39/4 49/38/4 52/14/4 

f 56/40/5 55/34/5 52/14/5 51/41/5 

f 54/42/6 56/34/6 51/14/6 50/31/6 

g Mesh14 Group9 Group4 Group1 Model

l 52 51

l 49 52

l 50 49

l 51 50

l 51 56

l 55 56

l 53 55

l 54 53

l 56 54

l 50 54

l 49 53

l 52 55

g Mesh15 Group10 Model

usemtl Base
v 15.73 1.70996 -3.6
vn 1.07594e-13 2.49384e-13 1
v 18.1258 1.70996 -3.6
vt -24.2 -1.17755e-56
v 18.1258 1.99682 -3.6
vt -24.2 8.30636
v 16.516 2.85444 -3.6
vt -7.93896 33.1402
v 15.73 2.85444 -3.6
vt 0 33.1402
f 57/14/7 58/43/7 59/44/7 60/45/7 61/46/7 

v 15.73 1.70996 -4.8
vt -7.21911e-15 18.3264
vn 7.7812e-26 -1 2.49384e-13
v 18.1258 1.70996 -4.8
vt 24.2 18.3264
vt 24.2 -7.35232e-52
f 62/47/8 63/48/8 58/49/8 57/14/8 

v 18.1258 1.99682 -4.8
vt 24.2 8.30636
vn -1.07594e-13 -2.49384e-13 -1
vt 24.2 -4.62622e-28
vt -7.21911e-15 -4.62622e-28
v 15.73 2.85444 -4.8
vt -7.21911e-15 33.1402
v 16.516 2.85444 -4.8
vt 7.93896 33.1402
f 64/50/9 63/51/9 62/52/9 65/53/9 66/54/9 

vt -4.42612e-27 18.3264
vn 1 -2.69416e-26 -1.07594e-13
vt 5.43896 18.3264
vt 5.43896 -2.48533e-37
vt -4.42612e-27 -2.48533e-37
f 63/55/10 64/56/10 59/57/10 58/58/10 

vt -13.2661 18.3264
vn 0.882572 0.470178 -2.12215e-13
vt 9.73052 18.3264
vt 9.73052 -1.1025e-14
vt -13.2661 8.5917e-27
f 64/59/11 66/60/11 60/61/11 59/62/11 

vt -7.93896 18.3264
vn -7.7532e-26 1 -2.49384e-13
vt 7.21911e-15 18.3264
vt -8.98688e-25 1.26896e-26
vt -7.93896 -1.1025e-14
f 66/63/12 65/64/12 61/65/12 60/66/12 

vt -21.7 18.3264
vn -1 2.69654e-26 1.07594e-13
vt -9.96649e-43 18.3264
vt -21.7 -5.83308e-56
f 65/67/13 62/68/13 57/14/13 61/69/13 

g Mesh16 Group10 Model

l 60 59

l 60 61

l 60 66

l 66 65

l 66 64

l 63 64

l 62 63

l 65 62

l 61 65

l 61 57

l 57 58

l 57 62

l 58 59

l 58 63

l 59 64

