# Alias OBJ Model File
# Exported from SketchUp, (c) 2000-2012 Trimble Navigation Limited
# File units = meters

mtllib BridgeStart.mtl

g Mesh1 Group2 Group1 Model

usemtl Base2
v 0 0 3.66
vt 0 -20.1895
vn 0 -1 -0
v 0 0 -5.52
vt 0 7.84979
v 18.15 0 -5.52
vt -36.3 7.84979
v 18.15 0 3.66
vt -36.3 -20.1895
f 1/1/1 2/2/1 3/3/1 4/4/1 

vt -5.14 0
vn -1 0 -0
vt 13.22 0
v 0 0.526761 3.66
vt 13.22 8.49531
v 0 0.526761 -5.52
vt -5.14 8.49531
f 2/5/2 1/6/2 5/7/2 6/8/2 

vt 0 0
vn 0 0 1
vt 36.3 0
v 18.15 0.526761 3.66
vt 36.3 8.49531
vt 0 8.49531
f 1/9/3 4/10/3 7/11/3 5/12/3 

vt -13.22 0
vn 1 0 -0
vt 5.14 0
v 18.15 0.526761 -5.52
vt 5.14 8.49531
vt -13.22 8.49531
f 4/13/4 3/14/4 8/15/4 7/16/4 

usemtl Base
vt -36.3 0
vn 0 0 -1
vt -36.3 8.49531
f 3/17/5 2/9/5 6/12/5 8/18/5 

usemtl Base2
vn 0 1 -0
vt 36.3 -20.1895
vt 36.3 7.84979
f 6/2/6 5/1/6 7/19/6 8/20/6 

g Mesh2 Group2 Group1 Model

l 2 1

l 3 2

l 4 3

l 1 4

l 1 5

l 6 5

l 8 6

l 7 8

l 5 7

l 4 7

l 3 8

l 2 6

g Mesh3 Group3 Group1 Model

usemtl Base
v 0 0.526761 -3.6
v 0 0.526761 -5.52
vt 0 5.86444
v 18.15 0.526761 -5.52
vt -36.3 5.86444
v 18.15 0.526761 -3.6
f 9/9/1 10/21/1 11/22/1 12/17/1 

vt -3.84 0
v 0 1.70996 -3.6
vt 0 9.16318
v 0 1.70996 -5.52
vt -3.84 9.16318
f 10/23/2 9/9/2 13/24/2 14/25/2 

v 18.15 1.70996 -3.6
vt 36.3 9.16318
f 9/9/3 12/10/3 15/26/3 13/24/3 

vt 3.84 0
v 18.15 1.70996 -5.52
vt 3.84 9.16318
f 12/9/4 11/27/4 16/28/4 15/24/4 

vt -36.3 9.16318
f 11/17/5 10/9/5 14/24/5 16/29/5 

vt 36.3 5.86444
f 14/21/6 13/9/6 15/10/6 16/30/6 

g Mesh4 Group3 Group1 Model

l 10 9

l 11 10

l 12 11

l 9 12

l 9 13

l 14 13

l 16 14

l 15 16

l 13 15

l 12 15

l 11 16

l 10 14

g Mesh5 Group5 Group4 Group1 Model

usemtl Metal
v 2.42 2.60316 -4.21697
v 2.42 2.60316 -4.61697
vt 0 1.22176
v 18.0696 2.60316 -4.61697
vt -0.9 1.22176
v 18.0696 2.60316 -4.21697
vt -0.9 0
f 17/9/1 18/31/1 19/32/1 20/33/1 

vt -0.8 0
v 2.42 2.72646 -4.21697
vt 0 1.37448
v 2.42 2.72646 -4.61697
vt -0.8 1.37448
f 18/34/2 17/9/2 21/35/2 22/36/2 

vt 0.9 0
v 18.0696 2.72646 -4.21697
vt 0.9 1.37448
f 17/9/3 20/37/3 23/38/3 21/35/3 

vt 0.8 0
v 18.0696 2.72646 -4.61697
vt 0.8 1.37448
f 20/9/4 19/39/4 24/40/4 23/35/4 

vt -0.9 1.37448
f 19/33/5 18/9/5 22/35/5 24/41/5 

vt 0.9 1.22176
f 22/31/6 21/9/6 23/37/6 24/42/6 

g Mesh6 Group5 Group4 Group1 Model

l 17 18

l 20 17

l 19 20

l 18 19

l 18 22

l 21 22

l 23 21

l 24 23

l 22 24

l 19 24

l 20 23

l 17 21

g Mesh7 Group6 Group4 Group1 Model

v 16.6383 1.70996 -4.1
v 16.6383 1.70996 -4.5
v 16.8514 1.70996 -4.5
v 16.8514 1.70996 -4.1
f 25/9/1 26/31/1 27/32/1 28/33/1 

v 16.6383 2.82811 -4.1
v 16.6383 2.82811 -4.5
f 26/34/2 25/9/2 29/35/2 30/36/2 

v 16.8514 2.82811 -4.1
f 25/9/3 28/37/3 31/38/3 29/35/3 

v 16.8514 2.82811 -4.5
f 28/9/4 27/39/4 32/40/4 31/35/4 

f 27/33/5 26/9/5 30/35/5 32/41/5 

f 30/31/6 29/9/6 31/37/6 32/42/6 

g Mesh8 Group6 Group4 Group1 Model

l 25 26

l 28 25

l 27 28

l 26 27

l 26 30

l 29 30

l 31 29

l 32 31

l 30 32

l 27 32

l 28 31

l 25 29

g Mesh9 Group7 Group4 Group1 Model

v 10.4331 1.70996 -4.21697
v 10.4331 1.70996 -4.61697
v 10.6462 1.70996 -4.61697
v 10.6462 1.70996 -4.21697
f 33/9/1 34/31/1 35/32/1 36/33/1 

v 10.4331 2.82811 -4.21697
v 10.4331 2.82811 -4.61697
f 34/34/2 33/9/2 37/35/2 38/36/2 

v 10.6462 2.82811 -4.21697
f 33/9/3 36/37/3 39/38/3 37/35/3 

v 10.6462 2.82811 -4.61697
f 36/9/4 35/39/4 40/40/4 39/35/4 

f 35/33/5 34/9/5 38/35/5 40/41/5 

f 38/31/6 37/9/6 39/37/6 40/42/6 

g Mesh10 Group7 Group4 Group1 Model

l 33 34

l 36 33

l 35 36

l 34 35

l 34 38

l 37 38

l 39 37

l 40 39

l 38 40

l 35 40

l 36 39

l 33 37

g Mesh11 Group8 Group4 Group1 Model

v 2.42 2.05316 -4.21697
v 2.42 2.05316 -4.61697
v 18.0696 2.05316 -4.61697
v 18.0696 2.05316 -4.21697
f 41/9/1 42/31/1 43/32/1 44/33/1 

v 2.42 2.17646 -4.21697
v 2.42 2.17646 -4.61697
f 42/34/2 41/9/2 45/35/2 46/36/2 

v 18.0696 2.17646 -4.21697
f 41/9/3 44/37/3 47/38/3 45/35/3 

v 18.0696 2.17646 -4.61697
f 44/9/4 43/39/4 48/40/4 47/35/4 

f 43/33/5 42/9/5 46/35/5 48/41/5 

f 46/31/6 45/9/6 47/37/6 48/42/6 

g Mesh12 Group8 Group4 Group1 Model

l 41 42

l 44 41

l 43 44

l 42 43

l 42 46

l 45 46

l 47 45

l 48 47

l 46 48

l 43 48

l 44 47

l 41 45

g Mesh13 Group9 Group4 Group1 Model

v 3.44969 1.70996 -4.21697
v 3.44969 1.70996 -4.61697
v 3.66287 1.70996 -4.61697
v 3.66287 1.70996 -4.21697
f 49/9/1 50/31/1 51/32/1 52/33/1 

v 3.44969 2.82811 -4.21697
v 3.44969 2.82811 -4.61697
f 50/34/2 49/9/2 53/35/2 54/36/2 

v 3.66287 2.82811 -4.21697
f 49/9/3 52/37/3 55/38/3 53/35/3 

v 3.66287 2.82811 -4.61697
f 52/9/4 51/39/4 56/40/4 55/35/4 

f 51/33/5 50/9/5 54/35/5 56/41/5 

f 54/31/6 53/9/6 55/37/6 56/42/6 

g Mesh14 Group9 Group4 Group1 Model

l 49 50

l 52 49

l 51 52

l 50 51

l 50 54

l 53 54

l 55 53

l 56 55

l 54 56

l 51 56

l 52 55

l 49 53

g Mesh15 Group10 Model

usemtl Base
v 2.42 2.85444 -3.6
vt 0 33.1402
vn -1.07594e-13 2.49384e-13 1
v 1.63404 2.85444 -3.6
vt -7.93896 33.1402
v 0.0242 1.99682 -3.6
vt -24.2 8.30636
v 0.0242 1.70996 -3.6
vt -24.2 -1.17755e-56
v 2.42 1.70996 -3.6
f 57/43/7 58/44/7 59/45/7 60/46/7 61/9/7 

vt -7.93896 -1.1025e-14
vn 7.7532e-26 1 -2.49384e-13
vt -8.98688e-25 1.26896e-26
v 2.42 2.85444 -4.8
vt 7.21911e-15 18.3264
v 1.63404 2.85444 -4.8
vt -7.93896 18.3264
f 58/47/8 57/48/8 62/49/8 63/50/8 

vt -21.7 -5.83308e-56
vn 1 2.69654e-26 1.07594e-13
v 2.42 1.70996 -4.8
vt -9.96649e-43 18.3264
vt -21.7 18.3264
f 57/51/9 61/9/9 64/52/9 62/53/9 

vn -7.7812e-26 -1 2.49384e-13
vt 24.2 -7.35232e-52
v 0.0242 1.70996 -4.8
vt 24.2 18.3264
vt -7.21911e-15 18.3264
f 61/9/10 60/54/10 65/55/10 64/56/10 

vt -4.42612e-27 -2.48533e-37
vn -1 -2.69416e-26 -1.07594e-13
vt 5.43896 -2.48533e-37
v 0.0242 1.99682 -4.8
vt 5.43896 18.3264
vt -4.42612e-27 18.3264
f 60/57/11 59/58/11 66/59/11 65/60/11 

vt -13.2661 8.5917e-27
vn -0.882572 0.470178 -2.12215e-13
vt 9.73052 -1.1025e-14
vt 9.73052 18.3264
vt -13.2661 18.3264
f 59/61/12 58/62/12 63/63/12 66/64/12 

vt 7.93896 33.1402
vn 1.07594e-13 -2.49384e-13 -1
vt -7.21911e-15 33.1402
vt -7.21911e-15 -4.62622e-28
vt 24.2 -4.62622e-28
vt 24.2 8.30636
f 63/65/13 62/66/13 64/67/13 65/68/13 66/69/13 

g Mesh16 Group10 Model

l 58 59

l 58 57

l 58 63

l 63 62

l 63 66

l 65 66

l 64 65

l 62 64

l 57 62

l 57 61

l 61 60

l 61 64

l 60 59

l 60 65

l 59 66

